<svg xmlns="http://www.w3.org/2000/svg" width="65" height="65" data-name="Layer 51"><path d="M6.5 0h52C62.101 0 65 2.899 65 6.5v52c0 3.601-2.899 6.5-6.5 6.5h-52A6.486 6.486 0 0 1 0 58.5v-52C0 2.899 2.899 0 6.5 0" style="opacity:.996;fill:#8fb1d1;stroke-width:2.78572;stroke-linejoin:round"/><path d="M8.865 49.032h47.27V15.968H8.865Z" style="opacity:.996;fill:none;stroke:#fff;stroke-width:2.83524;stroke-linejoin:round"/><path d="M31.235 43.195a1.5 1.5 0 0 0-1.5-1.5h-14.5a1.5 1.5 0 0 0 0 3h14.54a1.5 1.5 0 0 0 1.46-1.5M38.345 34.565h-23.11a1.5 1.5 0 0 0 0 3h23.11a1.5 1.5 0 0 0 0-3M45.235 27.415h-30a1.5 1.5 0 0 0 0 3h30a1.5 1.5 0 0 0 0-3M15.235 23.305h21.07a1.5 1.5 0 1 0 0-3h-21.07a1.5 1.5 0 0 0 0 3" style="fill:#fff"/></svg>